<?xml version="1.0" encoding="utf-8"?>
<!-- Generator: Adobe Illustrator 16.0.0, SVG Export Plug-In . SVG Version: 6.00 Build 0)  -->
<!DOCTYPE svg PUBLIC "-//W3C//DTD SVG 1.1//EN" "http://www.w3.org/Graphics/SVG/1.1/DTD/svg11.dtd">
<svg version="1.1" id="Capa_1" xmlns="http://www.w3.org/2000/svg" xmlns:xlink="http://www.w3.org/1999/xlink" x="0px" y="0px"
	 width="151px" height="75px" viewBox="0 0 151 75" enable-background="new 0 0 151 75" xml:space="preserve">
<path fill="#454545" d="M42.794,11.006l-1.853-3.208l-4.543-7.869l-4.544,7.869l-1.852,3.208C15.484,13.967,4.56,26.809,4.56,42.202
	c0,17.584,14.255,31.839,31.839,31.839c17.584,0,31.839-14.255,31.839-31.839C68.238,26.808,57.313,13.967,42.794,11.006z
	 M51.517,45.954H40.151v11.364h-7.504V45.954H21.282v-7.505h11.365V27.084h7.504v11.365h11.366V45.954z"/>
<g enable-background="new    ">
	<path fill="#454545" d="M87.93,44.579c0.057-0.147,0.113-0.295,0.176-0.438c0.062-0.146,0.127-0.283,0.201-0.414l7.771-13.733
		c0.072-0.121,0.146-0.196,0.224-0.224c0.075-0.028,0.179-0.042,0.31-0.042h0.99v19.772h-1.259V32.646
		c0-0.242,0.015-0.498,0.042-0.769l-7.781,13.82c-0.131,0.242-0.317,0.363-0.562,0.363h-0.224c-0.232,0-0.42-0.121-0.561-0.363
		l-7.992-13.834c0.027,0.271,0.043,0.531,0.043,0.782v16.853h-1.244V29.726h0.979c0.13,0,0.233,0.014,0.313,0.042
		c0.078,0.027,0.154,0.103,0.229,0.224l7.979,13.75C87.706,44.002,87.827,44.281,87.93,44.579z"/>
	<path fill="#454545" d="M108.094,35.371c0.996,0,1.889,0.17,2.676,0.51c0.787,0.34,1.451,0.822,1.992,1.446
		c0.539,0.624,0.951,1.376,1.235,2.257c0.284,0.88,0.427,1.865,0.427,2.955s-0.143,2.072-0.427,2.947
		c-0.284,0.877-0.696,1.627-1.235,2.25c-0.541,0.625-1.205,1.104-1.992,1.438s-1.68,0.505-2.676,0.505s-1.889-0.17-2.676-0.505
		c-0.787-0.336-1.453-0.813-1.998-1.438c-0.545-0.623-0.961-1.373-1.244-2.25c-0.285-0.875-0.426-1.857-0.426-2.947
		s0.141-2.075,0.426-2.955c0.283-0.881,0.699-1.633,1.244-2.257s1.211-1.106,1.998-1.446
		C106.205,35.541,107.098,35.371,108.094,35.371z M108.094,48.632c0.828,0,1.553-0.142,2.172-0.427
		c0.621-0.283,1.137-0.691,1.553-1.223c0.414-0.53,0.725-1.172,0.93-1.922s0.311-1.59,0.311-2.521c0-0.922-0.104-1.762-0.311-2.516
		s-0.516-1.399-0.93-1.937c-0.416-0.536-0.932-0.948-1.553-1.237c-0.619-0.288-1.344-0.433-2.172-0.433
		c-0.83,0-1.554,0.145-2.174,0.433c-0.619,0.289-1.137,0.701-1.551,1.237c-0.414,0.535-0.727,1.183-0.936,1.937
		c-0.211,0.754-0.314,1.594-0.314,2.516c0,0.932,0.104,1.771,0.314,2.521c0.209,0.75,0.521,1.392,0.936,1.922
		c0.414,0.531,0.932,0.938,1.551,1.223C106.54,48.49,107.264,48.632,108.094,48.632z"/>
	<path fill="#454545" d="M117.916,49.498V35.595h0.699c0.158,0,0.271,0.032,0.342,0.098c0.07,0.065,0.109,0.177,0.119,0.335
		l0.111,2.935c0.445-1.127,1.043-2.01,1.789-2.648s1.662-0.957,2.752-0.957c0.42,0,0.807,0.045,1.16,0.133
		c0.354,0.089,0.688,0.217,1.006,0.385l-0.183,0.922c-0.026,0.149-0.121,0.224-0.278,0.224c-0.057,0-0.137-0.019-0.236-0.056
		c-0.104-0.037-0.23-0.079-0.385-0.126c-0.155-0.047-0.342-0.088-0.566-0.126c-0.223-0.037-0.479-0.056-0.768-0.056
		c-1.055,0-1.918,0.326-2.595,0.979c-0.675,0.653-1.223,1.593-1.642,2.822V49.5h-1.327L117.916,49.498L117.916,49.498z"/>
	<path fill="#454545" d="M134.252,35.371c0.781,0,1.506,0.135,2.172,0.405s1.244,0.663,1.733,1.181
		c0.489,0.517,0.87,1.152,1.146,1.907c0.276,0.755,0.412,1.62,0.412,2.599c0,0.205-0.029,0.346-0.091,0.42
		c-0.06,0.074-0.155,0.111-0.286,0.111h-10.033v0.266c0,1.043,0.121,1.961,0.363,2.754c0.242,0.791,0.587,1.454,1.034,1.99
		c0.446,0.536,0.987,0.938,1.621,1.209c0.634,0.27,1.341,0.405,2.124,0.405c0.697,0,1.304-0.077,1.816-0.231
		c0.512-0.152,0.941-0.324,1.293-0.517c0.348-0.19,0.625-0.363,0.829-0.517c0.204-0.154,0.354-0.231,0.447-0.231
		c0.12,0,0.214,0.047,0.278,0.142l0.363,0.445c-0.225,0.279-0.521,0.541-0.889,0.783c-0.367,0.242-0.777,0.449-1.229,0.622
		c-0.453,0.172-0.938,0.31-1.453,0.411c-0.519,0.103-1.036,0.154-1.559,0.154c-0.951,0-1.816-0.166-2.601-0.496
		c-0.782-0.33-1.454-0.813-2.015-1.447c-0.562-0.633-0.994-1.408-1.301-2.325c-0.307-0.918-0.459-1.968-0.459-3.151
		c0-0.996,0.143-1.917,0.426-2.76c0.285-0.843,0.695-1.569,1.229-2.18c0.535-0.611,1.192-1.088,1.972-1.433
		C132.379,35.542,133.264,35.371,134.252,35.371z M134.271,36.363c-0.717,0-1.357,0.111-1.926,0.335
		c-0.566,0.224-1.06,0.545-1.473,0.964c-0.414,0.42-0.75,0.923-1.006,1.51c-0.258,0.587-0.426,1.243-0.51,1.971h9.152
		c0-0.746-0.103-1.414-0.307-2.006c-0.205-0.592-0.494-1.092-0.865-1.502c-0.373-0.41-0.818-0.725-1.34-0.943
		C135.479,36.474,134.904,36.363,134.271,36.363z"/>
</g>
</svg>
